<mxfile host="app.diagrams.net" modified="2023-10-13T13:07:54.665Z" agent="Mozilla/5.0 (Windows NT 10.0; Win64; x64; rv:109.0) Gecko/20100101 Firefox/118.0" etag="CKOHrnfuvjLo3G8xGk3O" version="22.0.4" type="onedrive">
  <diagram name="Page-1" id="tg-TMCMYrNph7OKn1kkh">
    <mxGraphModel grid="1" page="1" gridSize="10" guides="1" tooltips="1" connect="1" arrows="1" fold="1" pageScale="1" pageWidth="827" pageHeight="1169" math="0" shadow="0">
      <root>
        <mxCell id="0" />
        <mxCell id="1" parent="0" />
        <mxCell id="H_7lb7q8xGTiCtWIf-_7-3" value="3D MAP" style="rounded=0;whiteSpace=wrap;html=1;" vertex="1" parent="1">
          <mxGeometry x="100" y="60" width="610" height="740" as="geometry" />
        </mxCell>
        <mxCell id="H_7lb7q8xGTiCtWIf-_7-4" value="&lt;div align=&quot;center&quot;&gt;Game system controls&lt;/div&gt;" style="rounded=0;whiteSpace=wrap;html=1;align=center;" vertex="1" parent="1">
          <mxGeometry x="20" y="60" width="80" height="460" as="geometry" />
        </mxCell>
        <mxCell id="H_7lb7q8xGTiCtWIf-_7-5" value="&lt;div&gt;World Controls&lt;/div&gt;" style="rounded=0;whiteSpace=wrap;html=1;" vertex="1" parent="1">
          <mxGeometry x="710" y="60" width="80" height="380" as="geometry" />
        </mxCell>
        <mxCell id="H_7lb7q8xGTiCtWIf-_7-6" value="App controls" style="rounded=0;whiteSpace=wrap;html=1;" vertex="1" parent="1">
          <mxGeometry x="20" width="770" height="60" as="geometry" />
        </mxCell>
        <mxCell id="H_7lb7q8xGTiCtWIf-_7-7" value="&lt;div&gt;Map Info Panel&lt;/div&gt;" style="rounded=1;whiteSpace=wrap;html=1;" vertex="1" parent="1">
          <mxGeometry x="317.5" y="70" width="175" height="40" as="geometry" />
        </mxCell>
        <mxCell id="H_7lb7q8xGTiCtWIf-_7-8" value="Logs &amp;amp; Chat" style="rounded=0;whiteSpace=wrap;html=1;" vertex="1" parent="1">
          <mxGeometry x="20" y="800" width="770" height="60" as="geometry" />
        </mxCell>
        <mxCell id="H_7lb7q8xGTiCtWIf-_7-9" value="Selection Controls" style="rounded=0;whiteSpace=wrap;html=1;" vertex="1" parent="1">
          <mxGeometry x="710" y="440" width="80" height="360" as="geometry" />
        </mxCell>
        <mxCell id="ZT_aUmbTSvo6adKqlET2-1" value="Encounter controls" style="rounded=0;whiteSpace=wrap;html=1;" vertex="1" parent="1">
          <mxGeometry x="20" y="520" width="80" height="280" as="geometry" />
        </mxCell>
        <mxCell id="ZT_aUmbTSvo6adKqlET2-2" value="Encounter details" style="rounded=1;whiteSpace=wrap;html=1;" vertex="1" parent="1">
          <mxGeometry x="110" y="570" width="180" height="220" as="geometry" />
        </mxCell>
        <mxCell id="ZT_aUmbTSvo6adKqlET2-3" value="Selection (short) info panel" style="rounded=1;whiteSpace=wrap;html=1;" vertex="1" parent="1">
          <mxGeometry x="560" y="680" width="140" height="110" as="geometry" />
        </mxCell>
        <mxCell id="ZT_aUmbTSvo6adKqlET2-4" value="&lt;h1&gt;System Controls&lt;br&gt;&lt;/h1&gt;&lt;ul&gt;&lt;li&gt;Checks &amp;amp; Dice&lt;/li&gt;&lt;li&gt;Time Keeping &amp;amp; Gameplay&lt;/li&gt;&lt;li&gt;Attributes&lt;/li&gt;&lt;li&gt;Skills&lt;/li&gt;&lt;li&gt;Perks&lt;/li&gt;&lt;li&gt;Health&lt;/li&gt;&lt;li&gt;Injuries/Conditions/Effects&lt;/li&gt;&lt;li&gt;Resting&lt;br&gt;&lt;/li&gt;&lt;/ul&gt;" style="text;html=1;strokeColor=none;fillColor=none;spacing=5;spacingTop=-20;whiteSpace=wrap;overflow=hidden;rounded=0;" vertex="1" parent="1">
          <mxGeometry x="20" y="880" width="210" height="300" as="geometry" />
        </mxCell>
        <mxCell id="ZT_aUmbTSvo6adKqlET2-5" value="&lt;h1&gt;World Controls&lt;br&gt;&lt;/h1&gt;&lt;ul&gt;&lt;li&gt;Calendar&lt;br&gt;&lt;/li&gt;&lt;li&gt;Organisation&lt;br&gt;&lt;/li&gt;&lt;li&gt;NPCs&lt;/li&gt;&lt;li&gt;Locations&lt;/li&gt;&lt;li&gt;Campaign&lt;br&gt;&lt;/li&gt;&lt;/ul&gt;" style="text;html=1;strokeColor=none;fillColor=none;spacing=5;spacingTop=-20;whiteSpace=wrap;overflow=hidden;rounded=0;" vertex="1" parent="1">
          <mxGeometry x="260" y="880" width="210" height="300" as="geometry" />
        </mxCell>
        <mxCell id="ZT_aUmbTSvo6adKqlET2-6" value="&lt;h1&gt;Selection Controls&lt;br&gt;&lt;/h1&gt;&lt;ul&gt;&lt;li&gt;info/details&lt;br&gt;&lt;/li&gt;&lt;li&gt;move&lt;/li&gt;&lt;li&gt;duplicate&lt;br&gt;&lt;/li&gt;&lt;li&gt;delete&lt;/li&gt;&lt;li&gt;encounter (add/remove)&lt;br&gt;&lt;/li&gt;&lt;/ul&gt;" style="text;html=1;strokeColor=none;fillColor=none;spacing=5;spacingTop=-20;whiteSpace=wrap;overflow=hidden;rounded=0;" vertex="1" parent="1">
          <mxGeometry x="480" y="880" width="230" height="300" as="geometry" />
        </mxCell>
        <mxCell id="ZT_aUmbTSvo6adKqlET2-9" value="Unreal" style="swimlane;whiteSpace=wrap;html=1;" vertex="1" parent="1">
          <mxGeometry x="900" y="260" width="380" height="450" as="geometry">
            <mxRectangle x="981" y="270" width="80" height="30" as="alternateBounds" />
          </mxGeometry>
        </mxCell>
        <mxCell id="ZT_aUmbTSvo6adKqlET2-7" value="Main App" style="shape=hexagon;perimeter=hexagonPerimeter2;whiteSpace=wrap;html=1;fixedSize=1;" vertex="1" parent="ZT_aUmbTSvo6adKqlET2-9">
          <mxGeometry x="200" y="180" width="120" height="80" as="geometry" />
        </mxCell>
        <mxCell id="ZT_aUmbTSvo6adKqlET2-10" value="Streaming map (GM/player mode) to second screen" style="rounded=0;whiteSpace=wrap;html=1;" vertex="1" parent="ZT_aUmbTSvo6adKqlET2-9">
          <mxGeometry x="279" y="60" width="120" height="60" as="geometry" />
        </mxCell>
        <mxCell id="ZT_aUmbTSvo6adKqlET2-11" style="edgeStyle=orthogonalEdgeStyle;rounded=0;orthogonalLoop=1;jettySize=auto;html=1;entryX=0.5;entryY=1.167;entryDx=0;entryDy=0;entryPerimeter=0;" edge="1" parent="ZT_aUmbTSvo6adKqlET2-9" source="ZT_aUmbTSvo6adKqlET2-7" target="ZT_aUmbTSvo6adKqlET2-10">
          <mxGeometry relative="1" as="geometry" />
        </mxCell>
        <mxCell id="ZT_aUmbTSvo6adKqlET2-12" value="C++ web-server" style="shape=parallelogram;perimeter=parallelogramPerimeter;whiteSpace=wrap;html=1;fixedSize=1;" vertex="1" parent="ZT_aUmbTSvo6adKqlET2-9">
          <mxGeometry x="129" y="330" width="120" height="60" as="geometry" />
        </mxCell>
        <mxCell id="ZT_aUmbTSvo6adKqlET2-13" style="edgeStyle=orthogonalEdgeStyle;rounded=0;orthogonalLoop=1;jettySize=auto;html=1;entryX=0.558;entryY=0.033;entryDx=0;entryDy=0;entryPerimeter=0;" edge="1" parent="ZT_aUmbTSvo6adKqlET2-9" source="ZT_aUmbTSvo6adKqlET2-7" target="ZT_aUmbTSvo6adKqlET2-12">
          <mxGeometry relative="1" as="geometry" />
        </mxCell>
        <mxCell id="ZT_aUmbTSvo6adKqlET2-14" value="Satellite Main App" style="shape=hexagon;perimeter=hexagonPerimeter2;whiteSpace=wrap;html=1;fixedSize=1;" vertex="1" parent="1">
          <mxGeometry x="1320" y="440" width="120" height="80" as="geometry" />
        </mxCell>
        <mxCell id="ZT_aUmbTSvo6adKqlET2-15" style="edgeStyle=orthogonalEdgeStyle;rounded=0;orthogonalLoop=1;jettySize=auto;html=1;entryX=0;entryY=0.5;entryDx=0;entryDy=0;startArrow=classic;startFill=1;" edge="1" parent="1" source="ZT_aUmbTSvo6adKqlET2-7" target="ZT_aUmbTSvo6adKqlET2-14">
          <mxGeometry relative="1" as="geometry" />
        </mxCell>
        <mxCell id="ZT_aUmbTSvo6adKqlET2-21" value="&lt;div&gt;Secondary apps&lt;/div&gt;&lt;div&gt;(mobile, website, electron)&lt;br&gt;&lt;/div&gt;" style="whiteSpace=wrap;html=1;" vertex="1" parent="1">
          <mxGeometry x="1030" y="750" width="120" height="60" as="geometry" />
        </mxCell>
        <mxCell id="ZT_aUmbTSvo6adKqlET2-22" value="" style="edgeStyle=orthogonalEdgeStyle;rounded=0;orthogonalLoop=1;jettySize=auto;html=1;startArrow=classic;startFill=1;" edge="1" parent="1" source="ZT_aUmbTSvo6adKqlET2-12" target="ZT_aUmbTSvo6adKqlET2-21">
          <mxGeometry relative="1" as="geometry" />
        </mxCell>
        <mxCell id="ZT_aUmbTSvo6adKqlET2-23" value="Local/AWS websockets" style="edgeLabel;html=1;align=center;verticalAlign=middle;resizable=0;points=[];" connectable="0" vertex="1" parent="ZT_aUmbTSvo6adKqlET2-22">
          <mxGeometry x="-0.1857" y="-3" relative="1" as="geometry">
            <mxPoint as="offset" />
          </mxGeometry>
        </mxCell>
      </root>
    </mxGraphModel>
  </diagram>
</mxfile>
